<!DOCTYPE svg PUBLIC "-//W3C//DTD SVG 1.1//EN" "http://www.w3.org/Graphics/SVG/1.1/DTD/svg11.dtd">
<!-- Uploaded to: SVG Repo, www.svgrepo.com, Transformed by: SVG Repo Mixer Tools -->
<svg version="1.1" id="Layer_1" xmlns="http://www.w3.org/2000/svg" xmlns:xlink="http://www.w3.org/1999/xlink" width="800px" height="800px" viewBox="0 0 24 24" enable-background="new 0 0 24 24" xml:space="preserve" fill="#000000">
<g id="SVGRepo_bgCarrier" stroke-width="0"/>
<g id="SVGRepo_tracerCarrier" stroke-linecap="round" stroke-linejoin="round"/>
<g id="SVGRepo_iconCarrier"> <path fill="#FAFAFA" d="M20,20H4c-1.1,0-2-0.9-2-2V6c0-1.1,0.9-2,2-2h16c1.1,0,2,0.9,2,2v12C22,19.1,21.1,20,20,20z"/> <path opacity="0.12" fill="#020202" d="M20,4H4C2.9,4,2,4.9,2,6v12c0,1.1,0.9,2,2,2h16c1.1,0,2-0.9,2-2V6C22,4.9,21.1,4,20,4z M21,18c0,0.6-0.4,1-1,1H4c-0.6,0-1-0.4-1-1V6c0-0.6,0.4-1,1-1h16c0.6,0,1,0.4,1,1V18z"/> <path id="Right-Oval" fill="#FF9900" d="M13,12c0,0.9-0.4,1.7-1,2.2c0.5,0.5,1.2,0.8,2,0.8 c1.7,0,3-1.3,3-3s-1.3-3-3-3c-0.8,0-1.5,0.3-2,0.8C12.6,10.3,13,11.1,13,12"/> <path id="Left-Oval" fill="#CC0000" d="M11,12c0-0.9,0.4-1.7,1-2.2C11.5,9.3,10.8,9,10,9 c-1.7,0-3,1.3-3,3s1.3,3,3,3c0.8,0,1.5-0.3,2-0.8C11.4,13.7,11,12.9,11,12"/> </g>
</svg>