<svg width="219" height="162" viewBox="0 0 219 162" fill="none" xmlns="http://www.w3.org/2000/svg">
<path d="M22.25 97.875C22.6667 98.5833 23 99.3125 23.25 100.062C23.5417 100.812 23.8542 101.792 24.1875 103C24.3542 103.417 24.5 103.896 24.625 104.438C26.0833 109.229 28.8542 112.917 32.9375 115.5C37.0208 118.083 41.6875 119.375 46.9375 119.375C49.6875 119.375 52.3542 118.896 54.9375 117.938C57.5625 116.938 59.7083 115.458 61.375 113.5C63.0833 111.5 63.9375 109.083 63.9375 106.25C63.9375 103.792 63.0625 101.5 61.3125 99.375C59.6042 97.25 57.4583 95.3542 54.875 93.6875C52.3333 91.9792 48.8125 89.875 44.3125 87.375C39.0208 84.4583 34.7292 81.875 31.4375 79.625C28.1458 77.375 25.3542 74.7083 23.0625 71.625C20.7708 68.5 19.625 64.9792 19.625 61.0625C19.625 56.2292 20.9792 52.25 23.6875 49.125C26.4375 45.9583 29.9375 43.6667 34.1875 42.25C38.4792 40.7917 43 40.0625 47.75 40.0625C51.8333 40.0625 55.8958 40.5625 59.9375 41.5625C64.0208 42.5625 67.8958 44 71.5625 45.875L72.375 63.6875H68.5C68 62.7292 67.4167 61.2083 66.75 59.125L66.125 57.3125C64.7083 53.2292 62.25 50.1458 58.75 48.0625C55.2917 45.9375 51.2917 44.875 46.75 44.875C44.4167 44.875 42.0625 45.2708 39.6875 46.0625C37.3125 46.8542 35.3125 48.0833 33.6875 49.75C32.1042 51.375 31.3125 53.3958 31.3125 55.8125C31.3125 58.0625 32.1458 60.1667 33.8125 62.125C35.4792 64.0833 37.5417 65.875 40 67.5C42.4583 69.0833 45.8542 71.0833 50.1875 73.5C55.7292 76.5833 60.2083 79.3125 63.625 81.6875C67.0833 84.0208 70.0208 86.8542 72.4375 90.1875C74.8958 93.5208 76.125 97.2917 76.125 101.5C76.125 106.708 74.6875 111.062 71.8125 114.562C68.9375 118.021 65.2083 120.562 60.625 122.188C56.0833 123.812 51.25 124.625 46.125 124.625C41.5417 124.625 36.6042 124.062 31.3125 122.938C26.0625 121.771 21.8125 120.188 18.5625 118.188V98L22.25 97.875ZM113.938 107.062C113.938 110.146 114.208 112.417 114.75 113.875C115.292 115.333 116.021 116.292 116.938 116.75C117.896 117.208 119.354 117.625 121.312 118C123.812 118.417 125.979 119 127.812 119.75L127.688 123H87.4375C87.3958 122.667 87.3542 122.229 87.3125 121.688C87.2708 121.146 87.25 120.5 87.25 119.75C88.4167 119.25 89.4792 118.875 90.4375 118.625C91.4375 118.375 92.5833 118.104 93.875 117.812C95.75 117.438 97.1042 117 97.9375 116.5C98.7708 116 99.3958 115.021 99.8125 113.562C100.271 112.062 100.5 109.688 100.5 106.438V58.125C100.5 55.0833 100.25 52.8333 99.75 51.375C99.25 49.875 98.5417 48.875 97.625 48.375C96.7083 47.8333 95.2917 47.3125 93.375 46.8125C92.5 46.6042 91.5208 46.3333 90.4375 46C89.3542 45.6667 88.3125 45.2708 87.3125 44.8125L87.4375 41.625H127.625L127.75 44.875C125.875 45.7083 123.708 46.375 121.25 46.875C119.292 47.2917 117.833 47.7708 116.875 48.3125C115.958 48.8125 115.229 49.8125 114.688 51.3125C114.188 52.8125 113.938 55.1042 113.938 58.1875V78.5H158.562V57.5625C158.562 54.7292 158.312 52.625 157.812 51.25C157.312 49.875 156.625 48.9375 155.75 48.4375C154.875 47.8958 153.521 47.375 151.688 46.875C149.438 46.2917 147.5 45.6042 145.875 44.8125L146 41.625H185.188L185.312 44.875C183.479 45.5 181.708 46.0208 180 46.4375C177.708 47.0625 176.062 47.6667 175.062 48.25C174.062 48.8333 173.292 49.8958 172.75 51.4375C172.25 52.9792 172 55.375 172 58.625V106.312C172 109.646 172.229 112.083 172.688 113.625C173.146 115.125 173.833 116.146 174.75 116.688C175.708 117.188 177.271 117.667 179.438 118.125C181.854 118.667 183.812 119.208 185.312 119.75V123H146L145.875 119.75C146.917 119.167 147.854 118.75 148.688 118.5C149.562 118.25 150.729 117.979 152.188 117.688C153.854 117.396 155.083 117.021 155.875 116.562C156.708 116.104 157.354 115.188 157.812 113.812C158.312 112.396 158.562 110.208 158.562 107.25V83.9375H113.938V107.062Z" fill="#FF3B3B"/>
<path d="M3.456 100.456C2.77333 100.285 2.06933 99.9227 1.344 99.368C0.618667 98.8133 0.256 98.1947 0.256 97.512C0.256 96.7013 0.704 95.8907 1.6 95.08C2.496 94.2693 3.60533 93.5227 4.928 92.84C6.29333 92.1147 7.68 91.4747 9.088 90.92C10.496 90.3653 11.7547 89.9173 12.864 89.576C13.9733 89.192 14.72 88.9573 15.104 88.872C15.4027 88.8293 15.7013 88.7653 16 88.68C16.2987 88.5947 16.576 88.5307 16.832 88.488C16.448 88.1893 16.064 87.9333 15.68 87.72C15.296 87.5067 14.9547 87.3147 14.656 87.144C14.1867 86.888 13.7173 86.6107 13.248 86.312C12.7787 86.0133 12.3093 85.736 11.84 85.48C10.9867 85.0107 10.1973 84.6267 9.472 84.328C8.78933 83.9867 8.14933 83.6027 7.552 83.176C6.95467 82.7067 6.336 82.0453 5.696 81.192C5.312 80.68 4.94933 80.04 4.608 79.272C4.26667 78.4613 4.096 77.7787 4.096 77.224C4.096 76.0293 4.56533 74.9413 5.504 73.96C6.48533 72.936 7.63733 72.0613 8.96 71.336C10.2827 70.6107 11.4347 70.0987 12.416 69.8C12.8427 69.672 13.248 69.48 13.632 69.224C14.016 68.968 14.4213 68.7973 14.848 68.712C15.232 68.6267 15.5947 68.4987 15.936 68.328C16.32 68.1147 16.704 67.9653 17.088 67.88C17.6853 67.7093 18.2827 67.6027 18.88 67.56C19.52 67.5173 20.16 67.4107 20.8 67.24C20.928 67.1973 21.056 67.176 21.184 67.176C21.312 67.176 21.44 67.176 21.568 67.176C21.7813 67.176 21.9947 67.176 22.208 67.176C22.464 67.1333 22.6773 67.0693 22.848 66.984L22.976 66.92H23.104C23.3173 66.92 23.5093 66.9413 23.68 66.984C23.8933 66.984 24.0853 66.984 24.256 66.984C24.4693 66.984 24.6613 66.9627 24.832 66.92C25.0453 66.8347 25.2373 66.792 25.408 66.792C25.664 66.792 25.92 66.8347 26.176 66.92C26.432 66.9627 26.688 66.984 26.944 66.984C27.1573 66.984 27.4773 67.0693 27.904 67.24C28.3307 67.368 28.6293 67.4747 28.8 67.56C29.44 67.7733 30.0373 68.3067 30.592 69.16C31.1467 69.9707 31.424 70.6747 31.424 71.272C31.424 71.8267 31.296 72.2747 31.04 72.616C30.784 72.9147 30.4853 73.2347 30.144 73.576C29.7173 73.9173 29.3547 74.3013 29.056 74.728C28.7573 75.1547 28.48 75.6027 28.224 76.072C28.0533 76.4133 27.8613 76.584 27.648 76.584C27.4773 76.584 27.3493 76.4773 27.264 76.264C27.2213 76.0507 27.2853 75.8587 27.456 75.688C27.7973 74.9627 28.224 74.2373 28.736 73.512C29.248 72.744 29.504 71.9547 29.504 71.144C29.504 70.4613 29.312 70.056 28.928 69.928C28.544 69.8 28.1173 69.736 27.648 69.736H26.624C25.984 69.736 25.344 69.7787 24.704 69.864C24.1067 69.9493 23.488 70.0347 22.848 70.12C21.0987 70.2907 19.4347 70.6107 17.856 71.08C16.2773 71.5493 14.6987 72.1467 13.12 72.872C12.5227 73.1707 11.9467 73.5547 11.392 74.024C10.8373 74.4933 10.2613 74.8347 9.664 75.048L8.768 75.368C8.34133 75.88 7.808 76.4347 7.168 77.032C6.528 77.6293 6.208 78.2907 6.208 79.016C6.208 80.0827 6.82667 81.0427 8.064 81.896C9.30133 82.7067 10.7307 83.5813 12.352 84.52C13.2053 84.9893 14.1653 85.5227 15.232 86.12C16.2987 86.7173 17.28 87.4 18.176 88.168C18.7307 88.0827 19.2853 87.9973 19.84 87.912C20.4373 87.8267 21.0133 87.784 21.568 87.784C22.976 87.784 24.1707 88.2747 25.152 89.256C26.1333 90.2373 26.6667 91.3893 26.752 92.712C26.752 92.8827 26.752 93.032 26.752 93.16C26.7947 93.288 26.816 93.3947 26.816 93.48C26.816 94.1627 26.6667 94.6747 26.368 95.016C26.112 95.3573 25.664 95.6987 25.024 96.04C24.6827 96.2107 24.256 96.424 23.744 96.68C23.232 96.936 22.784 97.0853 22.4 97.128C22.272 97.2133 22.1227 97.256 21.952 97.256C21.824 97.1707 21.76 97.0853 21.76 97C21.76 96.744 21.952 96.5307 22.336 96.36C22.7627 96.0187 23.2533 95.6133 23.808 95.144C24.4053 94.632 24.9173 94.0987 25.344 93.544C25.7707 92.9893 25.9627 92.4773 25.92 92.008C25.8773 91.4533 25.5573 91.0693 24.96 90.856C24.4053 90.6 23.7867 90.4507 23.104 90.408C22.4213 90.3227 21.8667 90.28 21.44 90.28C21.0133 90.28 20.5867 90.3013 20.16 90.344C20.288 90.5147 20.3947 90.6853 20.48 90.856C20.6507 91.1973 20.736 91.5813 20.736 92.008C20.736 92.4773 20.6293 92.9893 20.416 93.544C19.8187 94.7813 18.9227 95.8053 17.728 96.616C16.576 97.384 15.2747 97.9813 13.824 98.408C12.3733 98.8347 10.9653 99.1547 9.6 99.368C9.42933 99.4107 9.25867 99.432 9.088 99.432C8.91733 99.432 8.72533 99.432 8.512 99.432C7.95733 99.432 7.232 99.368 6.336 99.24C5.44 99.1547 4.69333 99.0267 4.096 98.856C4.05333 98.7707 3.94667 98.6427 3.776 98.472C3.648 98.3013 3.66933 98.1733 3.84 98.088C3.84 98.088 3.86133 98.0667 3.904 98.024C3.94667 98.024 3.98933 98.024 4.032 98.024C4.16 98.024 4.352 98.088 4.608 98.216C4.82133 98.216 5.03467 98.216 5.248 98.216C5.46133 98.2587 5.65333 98.28 5.824 98.28C6.12267 98.28 6.4 98.2373 6.656 98.152C6.912 98.1093 7.18933 98.0667 7.488 98.024L8.896 97.512C9.19467 97.384 9.70667 97.2133 10.432 97C11.2 96.744 11.904 96.488 12.544 96.232C13.2267 95.9333 13.5893 95.6773 13.632 95.464C13.632 95.2933 13.696 95.208 13.824 95.208C14.2933 94.9093 14.8907 94.504 15.616 93.992C16.384 93.48 17.0453 92.9253 17.6 92.328C18.1973 91.7307 18.4533 91.112 18.368 90.472C17.088 90.6427 15.7867 90.8987 14.464 91.24C13.184 91.5387 12.0107 91.8587 10.944 92.2C10.0907 92.4987 9.00267 92.9467 7.68 93.544C6.4 94.1413 5.20533 94.824 4.096 95.592C3.02933 96.36 2.34667 97.1707 2.048 98.024V98.28C2.048 98.5787 2.176 98.92 2.432 99.304C2.688 99.688 3.008 99.88 3.392 99.88L3.456 100.456ZM33.714 101.928C33.4153 101.928 32.9887 101.779 32.434 101.48C31.922 101.224 31.5593 101.011 31.346 100.84C30.6207 100.115 30.258 99.0267 30.258 97.576C30.258 96.5093 30.4073 95.4213 30.706 94.312C31.0047 93.16 31.346 92.0933 31.73 91.112C32.114 90.088 32.434 89.2987 32.69 88.744C32.7753 88.616 32.8607 88.4453 32.946 88.232C33.0313 87.976 33.1593 87.6987 33.33 87.4C33.5433 86.888 33.7993 86.3973 34.098 85.928L33.266 86.184H32.946C32.5193 86.44 32.05 86.632 31.538 86.76C31.0687 86.8453 30.5993 86.952 30.13 87.08C29.618 87.208 29.1273 87.4 28.658 87.656C28.1887 87.8693 27.7193 88.0827 27.25 88.296C27.25 88.3387 27.186 88.36 27.058 88.36C26.8447 88.36 26.6527 88.2533 26.482 88.04C26.3113 87.784 26.226 87.5707 26.226 87.4C26.226 87.272 26.482 87.1227 26.994 86.952C27.4633 86.7387 28.0393 86.5253 28.722 86.312C29.4473 86.056 30.1087 85.8427 30.706 85.672C31.346 85.4587 31.7727 85.3307 31.986 85.288C32.3273 85.2027 32.626 85.1173 32.882 85.032C33.138 84.9467 33.394 84.8613 33.65 84.776V84.712H33.906C34.2473 84.712 34.5033 84.648 34.674 84.52C35.058 83.6667 35.6553 82.5573 36.466 81.192C37.2767 79.784 38.1727 78.5467 39.154 77.48C39.3673 77.2667 39.474 77.0107 39.474 76.712C39.5167 76.4133 39.6447 76.136 39.858 75.88C40.1993 75.5387 40.4767 75.2613 40.69 75.048C40.946 74.8347 41.2873 74.6 41.714 74.344C41.97 74.3867 42.3967 74.536 42.994 74.792C43.5913 75.048 44.146 75.3253 44.658 75.624C45.2127 75.9227 45.49 76.2 45.49 76.456C45.49 76.584 45.2767 76.8187 44.85 77.16C44.4233 77.4587 43.9753 77.7573 43.506 78.056C43.0367 78.3547 42.7167 78.568 42.546 78.696L42.098 78.824C41.586 79.2507 41.1167 79.6987 40.69 80.168C40.2633 80.6373 39.8153 81.0853 39.346 81.512C39.09 81.768 38.8767 82.0667 38.706 82.408C38.578 82.7067 38.386 82.984 38.13 83.24V83.56C38.002 83.6453 37.8953 83.752 37.81 83.88C38.962 83.7947 39.858 83.8373 40.498 84.008C41.1807 84.136 41.8633 84.4987 42.546 85.096C42.6313 85.1813 42.674 85.288 42.674 85.416C42.674 85.544 42.61 85.608 42.482 85.608H42.226V85.544L42.162 85.608C41.138 85.352 40.1567 85.224 39.218 85.224C38.834 85.224 38.4713 85.2453 38.13 85.288C37.7887 85.3307 37.49 85.3733 37.234 85.416C37.234 85.416 37.106 85.608 36.85 85.992C36.594 86.3333 36.338 86.696 36.082 87.08C35.826 87.4213 35.698 87.6347 35.698 87.72C35.6127 87.848 35.442 88.1467 35.186 88.616C34.9727 89.0853 34.7593 89.576 34.546 90.088C34.418 90.344 34.29 90.6 34.162 90.856C34.0767 91.0693 33.9913 91.2613 33.906 91.432L33.586 92.008C33.586 92.3067 33.522 92.6267 33.394 92.968C33.3087 93.2667 33.2233 93.544 33.138 93.8H33.074V93.928C33.074 94.184 33.01 94.4613 32.882 94.76C32.7967 95.016 32.7113 95.2507 32.626 95.464C32.4127 96.4453 32.306 97.3627 32.306 98.216C32.306 98.4293 32.306 98.6427 32.306 98.856C32.306 99.0693 32.3273 99.2827 32.37 99.496C32.4553 99.7947 32.5407 100.051 32.626 100.264C32.754 100.477 32.946 100.648 33.202 100.776C33.33 100.776 33.4367 100.797 33.522 100.84L34.034 100.904C34.546 100.989 34.802 101.117 34.802 101.288C34.802 101.587 34.6527 101.757 34.354 101.8C34.098 101.885 33.8847 101.928 33.714 101.928ZM37.3505 116.584C36.2838 116.584 35.5372 116.221 35.1105 115.496C34.6838 114.813 34.4705 114.067 34.4705 113.256C34.4705 112.403 34.6198 111.571 34.9185 110.76C35.2172 109.949 35.5798 109.203 36.0065 108.52C36.3478 107.923 36.7105 107.304 37.0945 106.664C37.4358 106.024 37.8198 105.427 38.2465 104.872C39.2705 103.464 40.5932 101.992 42.2145 100.456C43.8785 98.9627 45.4358 97.7253 46.8865 96.744C47.6118 96.2747 48.4865 95.784 49.5105 95.272C50.5772 94.7173 51.5158 94.2693 52.3265 93.928C53.1372 93.544 53.5425 93.352 53.5425 93.352C53.9265 93.224 54.3105 93.032 54.6945 92.776C55.1212 92.5627 55.4412 92.456 55.6545 92.456C55.6972 92.4133 55.7398 92.3707 55.7825 92.328C55.8252 92.2853 55.8678 92.2427 55.9105 92.2C56.2092 91.8587 56.4012 91.3467 56.4865 90.664C56.5718 89.9813 56.6998 89.4267 56.8705 89C56.9558 88.7867 57.0198 88.6373 57.0625 88.552C57.1478 88.424 57.1905 88.232 57.1905 87.976V87.592C57.1905 87.3787 57.2118 87.1867 57.2545 87.016C57.2972 86.8453 57.3398 86.6747 57.3825 86.504C57.4252 86.376 57.4465 86.0987 57.4465 85.672C57.1478 85.7573 56.8918 85.928 56.6785 86.184C56.5078 86.44 56.3158 86.6747 56.1025 86.888C55.7185 87.2293 55.3558 87.6133 55.0145 88.04C54.7158 88.4667 54.3745 88.8507 53.9905 89.192C53.3932 89.7467 52.5825 90.5147 51.5585 91.496C50.5345 92.4773 49.4678 93.352 48.3585 94.12C47.2492 94.888 46.2678 95.272 45.4145 95.272C44.8598 95.272 44.2412 95.0587 43.5585 94.632C42.8758 94.2053 42.4065 93.7787 42.1505 93.352V93.224C42.1505 93.096 42.1292 92.968 42.0865 92.84C42.0438 92.6693 42.0225 92.52 42.0225 92.392C42.0225 91.5813 42.2145 90.6853 42.5985 89.704C42.9825 88.7227 43.4305 87.8053 43.9425 86.952C44.4545 86.0987 44.9238 85.48 45.3505 85.096L45.5425 84.84C45.7132 84.6267 45.8625 84.4347 45.9905 84.264C46.1612 84.0933 46.3318 83.9227 46.5025 83.752C46.8438 83.368 47.1852 83.048 47.5265 82.792C47.9105 82.536 48.3372 82.408 48.8065 82.408C48.9772 82.408 49.3398 82.5147 49.8945 82.728C50.4492 82.9413 50.9825 83.176 51.4945 83.432C52.0065 83.6453 52.2625 83.8373 52.2625 84.008C52.3052 84.1787 52.2198 84.264 52.0065 84.264H51.8145L51.6865 84.2C51.6438 84.2 51.6012 84.2 51.5585 84.2C51.5158 84.1573 51.4518 84.136 51.3665 84.136C50.9398 84.136 50.3425 84.4987 49.5745 85.224C48.8492 85.9067 48.1025 86.7813 47.3345 87.848C46.5665 88.872 45.9265 89.8747 45.4145 90.856C44.9025 91.7947 44.6465 92.52 44.6465 93.032C44.6465 93.2453 44.7318 93.352 44.9025 93.352C45.3292 93.352 45.7772 93.2027 46.2465 92.904C46.7585 92.6053 47.1852 92.3493 47.5265 92.136H47.6545C49.5745 90.728 51.2812 89.3413 52.7745 87.976C53.5852 87.2507 54.3958 86.5253 55.2065 85.8C56.0172 85.0747 56.8278 84.3067 57.6385 83.496L58.0225 83.112L58.4065 82.664C58.6625 82.3653 58.9612 82.088 59.3025 81.832C59.6865 81.9173 60.2412 82.0453 60.9665 82.216C61.7345 82.3867 62.1398 82.7707 62.1825 83.368C62.1825 83.5813 62.1398 83.7947 62.0545 84.008C62.0118 84.1787 61.9692 84.3707 61.9265 84.584C61.8838 85.0107 61.8198 85.4373 61.7345 85.864C61.6492 86.2907 61.5638 86.7173 61.4785 87.144C61.4358 87.4 61.3505 87.656 61.2225 87.912C61.1372 88.168 61.0518 88.424 60.9665 88.68C60.8812 88.9787 60.8172 89.2987 60.7745 89.64C60.7745 89.9813 60.7105 90.3227 60.5825 90.664C60.5398 90.792 60.4332 91.0267 60.2625 91.368C60.0918 91.6667 60.0065 91.88 60.0065 92.008C60.0065 92.0507 60.0918 92.072 60.2625 92.072C60.3905 92.072 60.4972 92.072 60.5825 92.072C60.7105 92.0293 60.7958 92.008 60.8385 92.008C61.8625 92.008 62.7798 92.3493 63.5905 93.032C63.6758 93.0747 63.7185 93.1173 63.7185 93.16C63.7612 93.16 63.8038 93.16 63.8465 93.16V93.288C63.8465 93.5013 63.7185 93.672 63.4625 93.8C63.2065 93.928 63.0358 93.8427 62.9505 93.544C62.9078 93.416 62.8012 93.352 62.6305 93.352C62.4598 93.3093 62.3105 93.288 62.1825 93.288C61.7558 93.288 61.1585 93.4373 60.3905 93.736C59.6652 93.992 59.3238 94.376 59.3665 94.888C59.1532 95.016 58.8332 95.3787 58.4065 95.976C58.0225 96.5733 57.8092 96.9787 57.7665 97.192C57.7238 97.3627 57.7025 97.5333 57.7025 97.704C57.7025 97.8747 57.6172 98.0453 57.4465 98.216C57.2758 98.3867 57.1265 98.5573 56.9985 98.728C56.9132 98.8987 56.8705 99.1547 56.8705 99.496C56.6145 99.5813 56.3372 99.816 56.0385 100.2C55.7398 100.584 55.6118 100.904 55.6545 101.16L55.4625 101.224L55.5905 101.48C55.2492 101.608 55.0785 101.779 55.0785 101.992C54.8225 102.077 54.6092 102.291 54.4385 102.632C54.3105 102.973 54.1185 103.229 53.8625 103.4V103.656L53.3505 103.912L53.4145 104.104C53.2438 104.232 53.0732 104.36 52.9025 104.488C52.7745 104.659 52.6465 104.829 52.5185 105C52.3478 105.171 52.1985 105.32 52.0705 105.448C51.9852 105.576 51.8998 105.683 51.8145 105.768V106.024C51.6865 106.067 51.6225 106.173 51.6225 106.344C51.4092 106.387 51.2172 106.493 51.0465 106.664L50.7265 106.984L50.7905 107.112C50.6625 107.197 50.5345 107.283 50.4065 107.368C50.3212 107.453 50.2572 107.581 50.2145 107.752H50.0225C49.8945 108.008 49.6812 108.264 49.3825 108.52C49.1265 108.819 48.8918 109.075 48.6785 109.288L47.5905 110.632C47.2492 110.931 46.8652 111.208 46.4385 111.464C46.0545 111.72 45.6918 112.019 45.3505 112.36C45.2225 112.445 45.0945 112.552 44.9665 112.68C44.8812 112.808 44.7745 112.936 44.6465 113.064C44.4758 113.235 44.2412 113.384 43.9425 113.512C43.6865 113.683 43.4518 113.875 43.2385 114.088C42.5558 114.557 41.6598 115.091 40.5505 115.688C39.3985 116.285 38.3318 116.584 37.3505 116.584ZM38.9505 114.6C39.1638 114.515 39.4838 114.365 39.9105 114.152C40.3372 113.981 40.7212 113.789 41.0625 113.576C41.4465 113.363 41.6385 113.192 41.6385 113.064C42.1932 112.723 42.6838 112.317 43.1105 111.848C43.5798 111.421 44.0278 110.995 44.4545 110.568C44.9238 110.141 45.3932 109.715 45.8625 109.288C46.3318 108.861 46.7585 108.413 47.1425 107.944C47.3985 107.603 47.6332 107.261 47.8465 106.92C48.1025 106.579 48.3585 106.259 48.6145 105.96C48.9558 105.491 49.3185 105.021 49.7025 104.552C50.1292 104.125 50.5132 103.677 50.8545 103.208C51.2385 102.739 51.5798 102.227 51.8785 101.672C52.2198 101.117 52.5612 100.584 52.9025 100.072C53.1158 99.7307 53.3505 99.368 53.6065 98.984C53.9052 98.6 54.1398 98.216 54.3105 97.832C54.3958 97.704 54.4598 97.5547 54.5025 97.384C54.5878 97.256 54.6732 97.1067 54.7585 96.936C54.9292 96.6373 55.1638 96.1893 55.4625 95.592C55.8038 94.952 55.9745 94.4827 55.9745 94.184C55.4625 94.44 54.8652 94.696 54.1825 94.952C53.8412 95.1227 53.4998 95.2933 53.1585 95.464C52.8598 95.592 52.7105 95.6987 52.7105 95.784C52.4972 95.8267 51.9852 96.04 51.1745 96.424C50.4065 96.808 49.6385 97.2133 48.8705 97.64C48.1025 98.0667 47.6118 98.3867 47.3985 98.6C46.5878 99.1973 45.7985 99.8373 45.0305 100.52C44.3052 101.203 43.5798 101.885 42.8545 102.568C42.6838 102.739 42.5345 102.909 42.4065 103.08C42.2785 103.251 42.1505 103.443 42.0225 103.656C41.9798 103.741 41.9158 103.805 41.8305 103.848C41.7878 103.933 41.7452 104.019 41.7025 104.104C41.6172 104.189 41.4465 104.424 41.1905 104.808C40.9345 105.192 40.6998 105.576 40.4865 105.96C40.2732 106.344 40.1452 106.6 40.1025 106.728C39.7185 107.112 39.2705 107.752 38.7585 108.648C38.2465 109.544 37.8838 110.269 37.6705 110.824L37.2225 111.848C37.0945 112.019 37.0305 112.317 37.0305 112.744C36.9878 113.171 36.9665 113.512 36.9665 113.768C37.0092 114.152 37.1585 114.387 37.4145 114.472C37.6705 114.6 38.1825 114.643 38.9505 114.6ZM69.33 98.216C68.0927 98.216 67.1327 97.9387 66.45 97.384C65.81 96.872 65.362 96.2107 65.106 95.4C64.85 94.5467 64.6793 93.672 64.594 92.776C64.5513 92.3067 64.3593 91.9867 64.018 91.816C63.89 91.7307 63.7407 91.6667 63.57 91.624C63.442 91.5387 63.378 91.4107 63.378 91.24C63.5487 90.8987 63.8047 90.6427 64.146 90.472C64.4873 90.2587 64.7007 90.1307 64.786 90.088C64.786 90.0453 64.786 90.0027 64.786 89.96C64.8287 89.8747 64.85 89.7893 64.85 89.704L65.17 88.744L65.618 87.08C65.746 86.6107 65.8527 86.12 65.938 85.608C66.066 85.0533 66.2153 84.4987 66.386 83.944C66.5567 83.3467 66.7487 82.728 66.962 82.088C67.1753 81.448 67.4313 80.7653 67.73 80.04C68.0713 79.9547 68.242 79.8693 68.242 79.784C68.2847 79.656 68.2633 79.464 68.178 79.208C68.178 79.1653 68.1567 79.1227 68.114 79.08C68.114 79.0373 68.114 78.9947 68.114 78.952C68.114 78.696 68.1993 78.4187 68.37 78.12C68.5833 77.8213 68.7753 77.5227 68.946 77.224C69.1593 76.8827 69.3727 76.584 69.586 76.328C69.7993 76.0293 69.9273 75.8587 69.97 75.816C71.0793 74.3227 72.2313 72.9147 73.426 71.592C74.6633 70.2693 76.1353 69.1387 77.842 68.2C78.0553 68.1147 78.226 68.0293 78.354 67.944C78.5247 67.816 78.7167 67.7307 78.93 67.688L78.866 67.624C78.9513 67.624 79.0367 67.624 79.122 67.624C79.2073 67.5813 79.2927 67.56 79.378 67.56C79.7193 67.56 80.274 67.688 81.042 67.944C81.81 68.2 82.514 68.52 83.154 68.904C83.8367 69.288 84.178 69.7147 84.178 70.184C84.178 70.6533 83.922 71.3573 83.41 72.296C82.898 73.192 82.258 74.1947 81.49 75.304C80.722 76.3707 79.9113 77.4373 79.058 78.504C78.2473 79.5707 77.4793 80.5093 76.754 81.32C76.0713 82.1307 75.5593 82.7067 75.218 83.048C75.0473 83.2187 74.8767 83.368 74.706 83.496C74.5353 83.624 74.3647 83.7733 74.194 83.944C73.8527 84.2853 73.5113 84.648 73.17 85.032C72.8713 85.416 72.53 85.7787 72.146 86.12C71.5913 86.632 70.8873 87.208 70.034 87.848C69.2233 88.4453 68.5407 89 67.986 89.512C67.8153 89.6827 67.6873 89.832 67.602 89.96C67.5593 90.088 67.474 90.2373 67.346 90.408C67.1753 90.6213 67.0473 91.0693 66.962 91.752C66.9193 92.392 66.9193 92.8827 66.962 93.224C67.0047 93.608 67.1113 94.0987 67.282 94.696C67.4527 95.2507 67.7087 95.7627 68.05 96.232C68.3913 96.7013 68.818 96.936 69.33 96.936C69.586 96.936 69.7993 96.8933 69.97 96.808C70.1833 96.68 70.3967 96.5733 70.61 96.488C71.8473 95.8053 72.8927 95.1013 73.746 94.376C74.642 93.608 75.5593 92.712 76.498 91.688C76.8393 91.3467 77.1593 91.0053 77.458 90.664C77.7993 90.28 78.1407 89.9173 78.482 89.576C78.6953 89.4053 78.9087 89.2133 79.122 89C79.378 88.744 79.6553 88.6373 79.954 88.68C79.9113 89.192 79.7407 89.5547 79.442 89.768C79.186 89.9387 78.9513 90.1947 78.738 90.536C78.5247 90.92 78.3113 91.2827 78.098 91.624C77.8847 91.9653 77.6927 92.3493 77.522 92.776C77.4367 92.9467 77.3087 93.1173 77.138 93.288C76.9673 93.4587 76.818 93.6293 76.69 93.8C76.0073 94.6107 75.282 95.3573 74.514 96.04C73.746 96.68 72.85 97.192 71.826 97.576C71.3993 97.7467 70.994 97.896 70.61 98.024C70.226 98.152 69.7993 98.216 69.33 98.216ZM67.026 88.232H67.09C69.65 85.8853 72.1247 83.4533 74.514 80.936C76.9033 78.4187 78.9513 75.7093 80.658 72.808C80.7433 72.68 80.914 72.36 81.17 71.848C81.426 71.336 81.6393 70.824 81.81 70.312C82.0233 69.8 82.0233 69.48 81.81 69.352C81.3407 69.5227 80.8927 69.7573 80.466 70.056C80.082 70.3547 79.698 70.6533 79.314 70.952C79.186 71.0373 79.0367 71.1227 78.866 71.208C78.6953 71.2933 78.5673 71.4 78.482 71.528C78.1407 71.8693 77.7993 72.2107 77.458 72.552C77.1167 72.8933 76.7753 73.2347 76.434 73.576C75.9647 74.0453 75.5167 74.5573 75.09 75.112C74.706 75.6667 74.3007 76.2213 73.874 76.776C72.8927 78.056 72.082 79.1867 71.442 80.168C70.802 81.1067 70.0767 82.2587 69.266 83.624C69.138 83.88 68.9033 84.328 68.562 84.968C68.2207 85.608 67.9007 86.248 67.602 86.888C67.3033 87.4853 67.1113 87.9333 67.026 88.232ZM83.4015 97.448C82.6335 97.448 81.8015 97.2987 80.9055 97C80.0522 96.7013 79.3055 96.2533 78.6655 95.656C78.0682 95.0587 77.7268 94.3333 77.6415 93.48C77.6415 93.2667 77.6415 93.0533 77.6415 92.84C77.6842 92.6267 77.6842 92.4347 77.6415 92.264C77.6415 92.136 77.5135 92.008 77.2575 91.88L77.0655 91.688C76.8948 91.6027 76.7242 91.496 76.5535 91.368C76.3828 91.1973 76.2975 91.0053 76.2975 90.792C76.4255 90.7493 76.5322 90.728 76.6175 90.728C76.8308 90.728 77.0228 90.7493 77.1935 90.792C77.4068 90.8347 77.5988 90.856 77.7695 90.856C77.7268 90.856 77.7482 90.7707 77.8335 90.6C77.8335 90.5147 77.8548 90.4293 77.8975 90.344C77.9402 90.216 77.9828 90.1307 78.0255 90.088C78.0682 90.088 78.1322 89.9387 78.2175 89.64C78.3028 89.2987 78.3668 89.1067 78.4095 89.064C79.0068 87.2293 79.8175 85.672 80.8415 84.392C81.9082 83.0693 83.3588 82.088 85.1935 81.448C85.3642 81.4053 85.5135 81.384 85.6415 81.384C85.8122 81.3413 85.9828 81.32 86.1535 81.32C86.4948 81.32 86.9428 81.448 87.4975 81.704C88.0522 81.9173 88.5428 82.216 88.9695 82.6C89.4388 82.9413 89.6948 83.304 89.7375 83.688C89.7375 83.8587 89.7375 84.008 89.7375 84.136C89.7802 84.264 89.8015 84.4133 89.8015 84.584C89.8015 84.84 89.7375 85.1387 89.6095 85.48L89.2255 85.672C89.1402 85.8427 89.0548 85.9707 88.9695 86.056L88.5855 86.504C88.2442 86.8453 88.1162 87.08 88.2015 87.208L88.0735 87.272C88.0735 87.272 88.0735 87.2933 88.0735 87.336C88.0735 87.336 88.0522 87.336 88.0095 87.336L88.0735 87.272L88.0095 87.336V87.4L87.6895 87.464C87.5188 87.592 87.3695 87.7413 87.2415 87.912C87.1135 88.04 86.9855 88.1893 86.8575 88.36C86.2175 89.0427 85.3855 89.64 84.3615 90.152C83.3375 90.6213 82.3988 91.048 81.5455 91.432C81.4175 91.4747 81.2255 91.5387 80.9695 91.624C80.7562 91.6667 80.6068 91.752 80.5215 91.88C80.3508 92.0933 80.2442 92.3707 80.2015 92.712C80.1588 93.0533 80.1375 93.3733 80.1375 93.672C80.2228 94.184 80.3508 94.6747 80.5215 95.144C80.7348 95.6133 81.1615 95.848 81.8015 95.848H82.3775C82.5908 95.848 82.8042 95.8267 83.0175 95.784C83.2735 95.7413 83.5295 95.6987 83.7855 95.656L84.2335 95.4L84.2975 95.464C84.5535 95.3787 85.0015 95.1867 85.6415 94.888C86.2815 94.5893 86.9002 94.2907 87.4975 93.992C88.0948 93.6507 88.4575 93.416 88.5855 93.288L88.6495 93.224L88.7135 93.096L88.9055 92.904C89.6735 92.3493 90.4202 91.88 91.1455 91.496C91.8708 91.0693 92.5748 90.5147 93.2575 89.832L93.3855 89.96H93.5775C93.5348 90.2587 93.4282 90.4933 93.2575 90.664C93.0868 90.792 92.8948 90.9627 92.6815 91.176L92.4895 91.496C91.9775 92.3067 91.1882 93.1173 90.1215 93.928C89.0975 94.7387 88.1588 95.4213 87.3055 95.976C87.0068 96.1467 86.7082 96.36 86.4095 96.616C86.1108 96.8293 85.7695 97 85.3855 97.128C84.6602 97.3413 83.9988 97.448 83.4015 97.448ZM81.3535 89.512C81.6095 89.512 81.7802 89.512 81.8655 89.512C81.9935 89.4693 82.1642 89.4267 82.3775 89.384C83.2308 88.9147 84.0202 88.36 84.7455 87.72C85.5135 87.08 86.2388 86.44 86.9215 85.8C87.0068 85.5013 87.2202 85.2453 87.5615 85.032L87.8175 84.84C87.9028 84.7547 87.9668 84.6693 88.0095 84.584C88.0948 84.4987 88.1375 84.4133 88.1375 84.328C88.1802 84.2853 88.1588 84.136 88.0735 83.88L88.0095 83.56V83.432C87.8815 83.3893 87.7108 83.368 87.4975 83.368C87.1988 83.496 86.9002 83.688 86.6015 83.944C86.3028 84.2 85.9828 84.3493 85.6415 84.392C85.4708 84.648 85.1082 84.9893 84.5535 85.416C84.2548 85.672 83.9562 85.928 83.6575 86.184C83.4015 86.3973 83.2308 86.5467 83.1455 86.632C82.8468 86.9307 82.4842 87.4 82.0575 88.04C81.6308 88.6373 81.3962 89.128 81.3535 89.512ZM119.616 99.112C119.189 99.1547 118.741 98.984 118.272 98.6C117.845 98.216 117.525 97.896 117.312 97.64C116.629 96.9147 116.181 95.976 115.968 94.824C115.797 93.6293 115.712 92.6693 115.712 91.944C115.712 90.5787 115.968 89.2773 116.48 88.04C116.992 86.76 117.504 85.48 118.016 84.2C116.565 84.4133 115.115 84.648 113.664 84.904C112.256 85.16 110.805 85.288 109.312 85.288C108.117 85.288 106.859 85.1173 105.536 84.776C104.213 84.392 103.317 83.5387 102.848 82.216C102.805 82.1307 102.784 82.0027 102.784 81.832C102.784 81.576 102.869 81.3413 103.04 81.128C103.168 80.872 103.211 80.6587 103.168 80.488C103.552 80.488 103.744 80.36 103.744 80.104C104.213 79.8053 104.853 79.464 105.664 79.08C106.475 78.6533 107.307 78.2907 108.16 77.992C109.056 77.6507 109.781 77.48 110.336 77.48C110.976 77.0533 111.744 76.84 112.64 76.84C112.981 76.7547 113.301 76.7333 113.6 76.776C113.941 76.776 114.283 76.776 114.624 76.776C114.88 76.6907 115.136 76.648 115.392 76.648C115.691 76.6053 115.989 76.584 116.288 76.584C116.416 76.5413 116.587 76.52 116.8 76.52C116.971 76.52 117.141 76.5413 117.312 76.584C117.525 76.584 117.717 76.584 117.888 76.584L118.08 76.776V77.16H118.016V77.224C117.205 77.2667 116.459 77.3947 115.776 77.608C115.093 77.7787 114.347 77.992 113.536 78.248C113.152 78.376 112.576 78.568 111.808 78.824C111.083 79.0373 110.293 79.336 109.44 79.72C108.629 80.0613 107.925 80.4667 107.328 80.936C106.773 81.4053 106.496 81.9173 106.496 82.472C106.496 82.8133 106.752 83.0267 107.264 83.112C107.776 83.1547 108.16 83.176 108.416 83.176C109.269 83.176 109.931 83.176 110.4 83.176C110.869 83.1333 111.339 83.0907 111.808 83.048C112.32 82.9627 112.981 82.856 113.792 82.728L118.848 81.96C119.36 81.3627 119.765 80.7227 120.064 80.04C120.405 79.3147 120.789 78.6107 121.216 77.928C122.368 76.0933 123.584 74.3013 124.864 72.552C126.144 70.8027 127.573 69.1387 129.152 67.56C129.749 66.9627 130.325 66.408 130.88 65.896C131.435 65.3413 132.117 64.936 132.928 64.68C133.269 64.7653 133.653 64.936 134.08 65.192C134.507 65.4053 134.827 65.6827 135.04 66.024C135.253 66.28 135.36 66.6 135.36 66.984C135.36 67.2827 135.275 67.56 135.104 67.816C134.933 68.072 134.741 68.3067 134.528 68.52C134.443 68.6053 134.272 68.7973 134.016 69.096C133.76 69.352 133.483 69.608 133.184 69.864C132.928 70.12 132.757 70.248 132.672 70.248H132.352V69.864C131.925 70.0773 131.563 70.376 131.264 70.76C130.965 71.144 130.645 71.4853 130.304 71.784C130.048 71.9973 129.792 72.2107 129.536 72.424C129.28 72.5947 129.024 72.7867 128.768 73C128.597 73.128 128.213 73.576 127.616 74.344C127.061 75.0693 126.421 75.9227 125.696 76.904C125.013 77.8427 124.373 78.7387 123.776 79.592C123.221 80.4027 122.88 80.9787 122.752 81.32C123.605 81.2347 124.309 81.128 124.864 81C125.419 80.872 126.165 80.744 127.104 80.616C128.299 80.488 129.493 80.3813 130.688 80.296C131.925 80.168 133.141 80.0187 134.336 79.848L135.616 79.656C135.957 79.5707 136.512 79.5067 137.28 79.464C138.048 79.4213 138.56 79.3147 138.816 79.144C139.115 78.6747 139.584 77.9493 140.224 76.968C140.864 75.944 141.611 74.8347 142.464 73.64C143.317 72.4027 144.171 71.2293 145.024 70.12C145.92 68.968 146.752 68.008 147.52 67.24C148.288 66.4293 148.885 65.96 149.312 65.832C149.44 65.7467 149.611 65.6613 149.824 65.576C150.037 65.4907 150.208 65.448 150.336 65.448C150.72 65.448 151.232 65.6187 151.872 65.96C152.512 66.2587 152.896 66.6427 153.024 67.112C152.469 67.368 151.936 67.6027 151.424 67.816C151.125 67.9867 150.891 68.1787 150.72 68.392C150.549 68.6053 150.272 68.7333 149.888 68.776V68.904H149.696C149.611 69.0747 149.483 69.1813 149.312 69.224L149.184 69.352C149.141 69.3947 149.12 69.416 149.12 69.416H149.184L149.376 69.8H149.12C147.925 71.208 146.816 72.7013 145.792 74.28C144.768 75.816 143.915 77.416 143.232 79.08V79.144C143.232 79.2293 143.211 79.272 143.168 79.272V79.4C144.064 79.4427 145.024 79.592 146.048 79.848C147.072 80.0613 148.032 80.424 148.928 80.936C149.824 81.4053 150.485 82.088 150.912 82.984C150.997 83.1547 151.061 83.3253 151.104 83.496C151.147 83.624 151.168 83.7947 151.168 84.008C151.168 84.3067 151.04 84.648 150.784 85.032C150.571 85.3733 150.251 85.544 149.824 85.544L149.312 84.776C149.483 84.5627 149.611 84.3493 149.696 84.136C149.824 83.88 149.888 83.6667 149.888 83.496C149.888 82.8987 149.611 82.4507 149.056 82.152C148.501 81.8533 147.861 81.64 147.136 81.512C146.453 81.384 145.835 81.32 145.28 81.32C144.683 81.32 144 81.4053 143.232 81.576C142.464 81.704 141.909 82.0027 141.568 82.472C141.056 83.1547 140.608 84.1573 140.224 85.48C139.883 86.8027 139.627 88.1467 139.456 89.512C139.285 90.8773 139.221 92.0293 139.264 92.968C139.307 93.224 139.349 93.5867 139.392 94.056C139.477 94.5253 139.627 94.9733 139.84 95.4C140.053 95.784 140.352 95.976 140.736 95.976C141.163 95.976 141.611 95.784 142.08 95.4C142.549 94.9733 142.997 94.504 143.424 93.992C143.893 93.48 144.256 93.0747 144.512 92.776L144.96 93.288C144.576 93.6293 144.32 93.992 144.192 94.376C144.107 94.76 143.957 95.1867 143.744 95.656C143.573 96.0827 143.339 96.4453 143.04 96.744C142.741 97.0427 142.251 97.192 141.568 97.192C141.141 97.192 140.715 97.1067 140.288 96.936C139.904 96.7227 139.541 96.5093 139.2 96.296C138.773 96.0827 138.347 95.8907 137.92 95.72C137.493 95.5493 137.067 95.3147 136.64 95.016C136.213 94.7173 135.851 94.3333 135.552 93.864C135.253 93.352 135.104 92.6267 135.104 91.688C135.104 89.9813 135.445 88.1253 136.128 86.12C136.853 84.072 137.557 82.3013 138.24 80.808H138.112V80.744C137.387 80.7867 136.875 80.872 136.576 81C136.32 81.0853 135.787 81.1707 134.976 81.256C134.677 81.2987 134.059 81.4053 133.12 81.576C132.181 81.704 131.093 81.8747 129.856 82.088C128.661 82.2587 127.467 82.4507 126.272 82.664C125.077 82.8773 124.075 83.0693 123.264 83.24C122.453 83.4107 122.005 83.5387 121.92 83.624C121.707 83.8373 121.472 84.328 121.216 85.096C120.96 85.864 120.725 86.6533 120.512 87.464C120.299 88.2747 120.149 88.872 120.064 89.256C120.064 89.384 120.043 89.6187 120 89.96C119.957 90.3013 119.893 90.6427 119.808 90.984C119.765 91.2827 119.701 91.56 119.616 91.816C119.531 92.072 119.445 92.2853 119.36 92.456C119.403 92.584 119.424 92.776 119.424 93.032C119.424 93.2453 119.403 93.4587 119.36 93.672C119.36 93.8853 119.36 94.0987 119.36 94.312C119.531 95.9333 120.213 97.2987 121.408 98.408L121.6 98.536C121.685 98.5787 121.728 98.6213 121.728 98.664C121.728 98.7067 121.728 98.728 121.728 98.728C121.728 98.8133 121.643 98.8773 121.472 98.92C121.301 98.9627 121.173 99.0053 121.088 99.048L119.616 99.112ZM153.79 98.6C153.363 98.6 153 98.536 152.702 98.408C152.446 98.3227 152.211 98.2373 151.998 98.152C151.87 98.0667 151.72 97.96 151.549 97.832C151.422 97.704 151.272 97.64 151.102 97.64C151.059 97.5547 150.974 97.448 150.846 97.32L150.59 97.128C150.206 96.8293 149.95 96.4667 149.822 96.04C149.694 95.6133 149.63 95.1227 149.63 94.568C149.63 93.8427 149.8 93.1813 150.142 92.584C150.483 91.9867 150.76 91.3467 150.974 90.664C151.059 90.4507 151.102 90.2373 151.102 90.024C151.102 89.8107 151.123 89.5973 151.166 89.384C151.251 89.0853 151.379 88.808 151.549 88.552C151.72 88.296 151.891 88.04 152.062 87.784C153.043 86.0773 154.216 84.712 155.582 83.688C156.947 82.6213 158.59 81.7253 160.51 81C160.723 80.9147 161.086 80.8293 161.598 80.744C162.152 80.6587 162.536 80.616 162.75 80.616C163.091 80.616 163.411 80.68 163.71 80.808C164.008 80.8933 164.307 80.9787 164.606 81.064C164.691 81.1067 164.776 81.1493 164.862 81.192C164.99 81.192 165.139 81.192 165.31 81.192L165.182 81.384C165.566 81.5547 165.864 81.7893 166.078 82.088C166.334 82.3867 166.611 82.664 166.91 82.92L167.486 83.432C167.656 83.6027 167.763 83.8373 167.806 84.136C167.891 84.392 167.934 84.6053 167.934 84.776C168.019 85.3733 167.976 85.9493 167.806 86.504C167.678 87.016 167.507 87.5067 167.294 87.976C167.038 88.4027 166.76 88.8507 166.462 89.32C166.163 89.7467 165.843 90.1733 165.502 90.6C165.203 91.0267 164.904 91.4533 164.606 91.88C164.307 92.3067 163.966 92.712 163.582 93.096C163.496 93.1813 163.283 93.3947 162.942 93.736C162.6 94.0347 162.259 94.3547 161.918 94.696C161.619 95.0373 161.448 95.2507 161.406 95.336C161.022 95.464 160.702 95.656 160.446 95.912L160.062 96.296C159.294 97.064 158.312 97.64 157.118 98.024C155.923 98.408 154.814 98.6 153.79 98.6ZM154.11 97.384C154.152 97.3413 154.216 97.32 154.302 97.32L154.878 97.128C155.091 97.0427 155.283 96.9787 155.454 96.936C155.667 96.8933 155.795 96.8507 155.838 96.808C156.008 96.7227 156.35 96.5093 156.862 96.168C157.416 95.8267 157.928 95.464 158.398 95.08C158.867 94.696 159.08 94.4187 159.038 94.248C159.336 94.12 159.699 93.7787 160.126 93.224C160.595 92.6693 161.022 92.072 161.406 91.432C161.832 90.792 162.11 90.344 162.238 90.088C162.323 89.8747 162.408 89.6827 162.494 89.512C162.579 89.3413 162.707 89.1707 162.878 89C162.878 88.7867 162.92 88.5947 163.006 88.424C163.134 88.2533 163.198 88.104 163.198 87.976C163.283 87.8907 163.326 87.7627 163.326 87.592C163.368 87.3787 163.411 87.2293 163.454 87.144C163.539 86.8027 163.603 86.5893 163.646 86.504L163.582 86.44C163.624 86.3547 163.646 86.2693 163.646 86.184C163.688 86.056 163.731 85.9707 163.774 85.928V85.736C163.774 85.5227 163.795 85.3307 163.838 85.16C163.88 84.9467 163.88 84.7333 163.838 84.52C163.923 84.3493 163.966 84.2 163.966 84.072C163.966 83.944 163.944 83.816 163.902 83.688C163.902 83.56 163.88 83.432 163.838 83.304L163.902 83.24C163.859 82.856 163.731 82.536 163.518 82.28C163.304 82.024 163.027 81.896 162.686 81.896C161.619 81.896 160.68 82.1733 159.87 82.728C159.059 83.2827 158.27 83.9013 157.502 84.584C157.203 84.7973 156.926 85.0107 156.67 85.224C156.456 85.4373 156.243 85.6933 156.03 85.992C156.03 86.0347 156.008 86.0773 155.966 86.12C156.051 86.0347 156.179 85.9707 156.35 85.928C156.734 85.6293 157.224 85.48 157.822 85.48C158.035 85.48 158.462 85.672 159.102 86.056C159.742 86.44 160.062 86.8027 160.062 87.144V87.464C159.763 87.336 159.592 87.2507 159.55 87.208L159.294 87.08C159.123 86.9947 158.931 86.952 158.718 86.952C158.035 86.952 157.31 87.272 156.542 87.912C155.816 88.552 155.219 89.1707 154.75 89.768C154.451 90.1093 154.174 90.4507 153.918 90.792C153.662 91.0907 153.555 91.5173 153.598 92.072C153.811 92.2 153.96 92.4347 154.046 92.776C153.918 92.8187 153.79 92.84 153.661 92.84C153.448 92.84 153.235 92.7333 153.022 92.52C152.894 92.6907 152.787 92.9253 152.702 93.224C152.616 93.5227 152.531 93.7787 152.446 93.992L152.318 94.184C152.318 94.3547 152.296 94.5253 152.254 94.696C152.254 94.8667 152.275 95.0373 152.318 95.208C152.36 95.848 152.51 96.3813 152.766 96.808C153.022 97.192 153.47 97.384 154.11 97.384ZM171.004 97.704C170.193 97.704 169.553 97.4267 169.084 96.872C168.657 96.2747 168.444 95.6133 168.444 94.888C168.444 93.9067 168.636 92.8187 169.02 91.624C169.404 90.3867 169.766 89.3627 170.108 88.552C170.193 88.2533 170.321 87.9973 170.492 87.784C170.662 87.528 170.748 87.2293 170.748 86.888C170.876 86.76 171.004 86.5253 171.132 86.184C171.302 85.8427 171.409 85.5867 171.452 85.416C171.281 85.544 171.068 85.736 170.812 85.992C170.556 86.248 170.321 86.4187 170.108 86.504L169.916 86.44C169.788 86.2693 169.788 86.0773 169.916 85.864C170.001 85.7787 170.108 85.6507 170.236 85.48C170.406 85.2667 170.577 85.0747 170.748 84.904C170.918 84.6907 171.068 84.4987 171.196 84.328C171.366 84.1573 171.473 84.0293 171.516 83.944C171.814 83.6027 172.049 83.3467 172.22 83.176C172.39 82.9627 172.689 82.7067 173.116 82.408C173.329 82.4507 173.67 82.536 174.14 82.664C174.652 82.7493 175.142 82.8987 175.612 83.112C176.081 83.2827 176.316 83.5173 176.316 83.816C176.358 84.072 176.188 84.4773 175.804 85.032C175.462 85.544 175.078 86.056 174.652 86.568C174.268 87.08 173.99 87.4853 173.82 87.784C173.521 88.2533 173.286 88.6587 173.116 89C172.945 89.3413 172.796 89.6613 172.668 89.96L171.772 92.264C171.601 92.6907 171.473 93.0747 171.388 93.416C171.302 93.7573 171.217 94.1627 171.132 94.632C171.132 94.6747 171.11 94.76 171.068 94.888C171.068 94.9733 171.068 95.0587 171.068 95.144C171.068 95.3147 171.089 95.4853 171.132 95.656C171.217 95.8267 171.345 95.912 171.516 95.912C171.686 95.912 171.921 95.784 172.22 95.528C173.116 94.8453 173.862 94.1627 174.46 93.48C174.801 93.1387 175.121 92.7973 175.42 92.456C175.718 92.1147 176.06 91.7307 176.444 91.304C177.382 90.28 178.321 89.2773 179.26 88.296C180.241 87.272 181.158 86.248 182.012 85.224C182.225 84.968 182.46 84.648 182.716 84.264C182.972 83.8373 183.249 83.624 183.548 83.624H183.612C183.868 83.624 184.337 83.752 185.02 84.008C185.702 84.2213 186.044 84.456 186.044 84.712V84.968C186.044 85.352 185.937 85.6933 185.724 85.992C185.596 86.1627 185.489 86.312 185.404 86.44C185.318 86.568 185.233 86.7387 185.148 86.952C185.105 87.208 185.041 87.4213 184.956 87.592C184.87 87.7627 184.764 87.976 184.635 88.232C184.252 88.872 183.889 89.768 183.548 90.92C183.206 92.072 183.057 93.0107 183.1 93.736C183.1 93.9493 183.121 94.312 183.164 94.824C183.249 95.2933 183.377 95.5707 183.548 95.656C183.974 95.6133 184.316 95.336 184.572 94.824C184.87 94.312 185.126 93.9067 185.34 93.608C185.553 93.3093 185.809 93.16 186.108 93.16C186.15 93.288 186.172 93.4587 186.172 93.672C186.172 93.8427 186.129 94.0133 186.044 94.184C185.958 94.3547 185.873 94.5467 185.788 94.76C185.702 95.016 185.617 95.272 185.532 95.528C185.489 95.7413 185.382 95.9547 185.212 96.168C184.956 96.6373 184.486 96.872 183.804 96.872C182.822 96.872 181.926 96.5947 181.116 96.04C180.348 95.4853 179.921 94.824 179.836 94.056C179.793 93.2453 179.878 92.328 180.092 91.304C180.348 90.28 180.625 89.4053 180.924 88.68C180.924 88.6373 180.924 88.5947 180.924 88.552C180.966 88.5093 180.988 88.4667 180.988 88.424C180.732 88.68 180.497 88.9573 180.284 89.256C180.07 89.5547 179.793 89.7893 179.452 89.96L178.876 90.472C178.449 91.2827 177.916 92.008 177.276 92.648C176.636 93.288 176.017 93.9493 175.42 94.632C174.865 95.3147 174.225 95.9973 173.5 96.68C172.817 97.3627 171.985 97.704 171.004 97.704ZM187.009 100.52C186.753 100.52 186.54 100.413 186.369 100.2C186.156 100.029 185.964 99.816 185.793 99.56L185.537 99.176C185.452 99.0907 185.366 98.984 185.281 98.856C185.153 98.728 185.004 98.664 184.833 98.664C184.833 98.4507 184.79 98.28 184.705 98.152C184.62 98.024 184.577 97.8533 184.577 97.64C185.473 96.4027 186.604 95.2933 187.969 94.312C189.334 93.288 190.721 92.4133 192.129 91.688H192.321C192.577 91.432 192.897 91.2187 193.281 91.048C193.665 90.8773 193.985 90.6427 194.241 90.344C193.558 90.0027 192.876 89.7253 192.193 89.512C191.553 89.256 190.934 88.8933 190.337 88.424C189.825 88.04 189.334 87.5707 188.865 87.016C188.396 86.4187 188.161 85.8 188.161 85.16C188.161 84.1787 188.417 83.2187 188.929 82.28C189.484 81.2987 190.145 80.5947 190.913 80.168C191.084 79.8693 191.51 79.5493 192.193 79.208C192.876 78.8667 193.58 78.5467 194.305 78.248C195.03 77.9493 195.564 77.736 195.905 77.608C196.204 77.3947 196.524 77.288 196.865 77.288L197.697 76.904H197.761C198.188 76.904 198.678 76.8827 199.233 76.84C199.788 76.7973 200.236 76.776 200.577 76.776C200.876 76.776 201.281 76.904 201.793 77.16C202.305 77.416 202.774 77.736 203.201 78.12C203.628 78.4613 203.841 78.8027 203.841 79.144C203.884 79.3573 203.777 79.6987 203.521 80.168C203.308 80.5947 203.052 81.0213 202.753 81.448C202.497 81.832 202.284 82.0667 202.113 82.152L201.921 82.216H201.665L201.601 81.896C201.814 81.6827 202.006 81.3413 202.177 80.872C202.348 80.4027 202.433 79.9973 202.433 79.656C202.433 79.016 202.07 78.696 201.345 78.696C200.833 78.696 200.321 78.7813 199.809 78.952C199.34 79.08 198.87 79.2293 198.401 79.4C196.737 79.9547 195.265 80.6373 193.985 81.448C192.705 82.216 191.574 83.4107 190.593 85.032C190.294 85.5013 190.145 85.928 190.145 86.312C190.145 86.952 190.7 87.528 191.809 88.04C191.98 88.0827 192.342 88.2747 192.897 88.616C193.494 88.9147 194.07 89.2133 194.625 89.512C195.18 89.768 195.457 89.896 195.457 89.896C195.67 89.896 195.884 89.8107 196.097 89.64C196.31 89.4267 196.502 89.2773 196.673 89.192C197.398 88.8507 198.294 88.424 199.361 87.912C200.428 87.3573 201.345 87.0373 202.113 86.952C202.241 86.9093 202.369 86.8667 202.497 86.824C202.668 86.7813 202.838 86.7387 203.009 86.696C203.222 86.696 203.372 86.8027 203.457 87.016C203.372 87.2293 203.18 87.3787 202.881 87.464C202.668 87.6347 202.348 87.8267 201.921 88.04C201.494 88.2107 201.132 88.36 200.833 88.488C200.534 88.5733 200.278 88.744 200.065 89C200.022 89.128 199.894 89.256 199.681 89.384C199.382 89.5973 198.913 89.9173 198.273 90.344C197.676 90.728 197.398 91.1547 197.441 91.624C197.441 91.752 197.569 91.9653 197.825 92.264C198.124 92.52 198.294 92.7547 198.337 92.968C198.38 93.3093 198.294 93.7787 198.081 94.376C197.91 94.9733 197.676 95.4213 197.377 95.72L197.441 95.976C197.142 96.0613 196.95 96.1893 196.865 96.36C196.78 96.488 196.652 96.6587 196.481 96.872C196.353 97.0427 196.204 97.1707 196.033 97.256C195.862 97.384 195.628 97.448 195.329 97.448L195.009 97.832H194.945C194.646 97.832 194.39 97.9387 194.177 98.152C193.964 98.408 193.75 98.6427 193.537 98.856L193.345 98.792C193.132 98.792 192.833 98.8773 192.449 99.048C192.108 99.2613 191.83 99.4107 191.617 99.496C191.318 99.624 190.998 99.7307 190.657 99.816C190.316 99.9013 189.932 99.944 189.505 99.944C189.377 99.944 189.249 99.944 189.121 99.944C188.993 99.944 188.865 99.9227 188.737 99.88C188.694 99.9227 188.63 99.944 188.545 99.944L188.353 100.072C188.097 100.157 187.905 100.2 187.777 100.2C187.521 100.2 187.393 100.115 187.393 99.944C187.436 99.816 187.521 99.688 187.649 99.56C187.734 99.4747 187.926 99.368 188.225 99.24C188.524 99.1547 188.822 99.0267 189.121 98.856C189.462 98.728 189.761 98.5787 190.017 98.408C190.316 98.28 190.55 98.1947 190.721 98.152C190.764 98.1093 190.806 98.0667 190.849 98.024C190.892 97.9813 190.934 97.9387 190.977 97.896L191.361 97.64C191.958 97.256 192.598 96.7653 193.281 96.168C193.964 95.528 194.54 94.8453 195.009 94.12C195.521 93.3947 195.734 92.712 195.649 92.072C195.649 91.9867 195.628 91.8373 195.585 91.624C195.542 91.4107 195.457 91.304 195.329 91.304C195.201 91.304 195.052 91.3893 194.881 91.56C194.71 91.7307 194.582 91.8587 194.497 91.944C194.198 92.1573 193.857 92.3707 193.473 92.584C193.132 92.7973 192.79 93.032 192.449 93.288C192.022 93.5867 191.638 93.928 191.297 94.312C190.956 94.6533 190.572 94.9947 190.145 95.336C189.59 95.7627 189.057 96.2107 188.545 96.68C188.076 97.1067 187.606 97.576 187.137 98.088C186.881 98.4293 186.753 98.8133 186.753 99.24C186.796 99.4107 186.86 99.5813 186.945 99.752C187.03 99.9653 187.094 100.179 187.137 100.392L187.073 100.52H187.009ZM208.214 97.448C207.446 97.448 206.614 97.2987 205.718 97C204.865 96.7013 204.118 96.2533 203.478 95.656C202.881 95.0587 202.539 94.3333 202.454 93.48C202.454 93.2667 202.454 93.0533 202.454 92.84C202.497 92.6267 202.497 92.4347 202.454 92.264C202.454 92.136 202.326 92.008 202.07 91.88L201.878 91.688C201.707 91.6027 201.537 91.496 201.366 91.368C201.195 91.1973 201.11 91.0053 201.11 90.792C201.238 90.7493 201.345 90.728 201.43 90.728C201.643 90.728 201.835 90.7493 202.006 90.792C202.219 90.8347 202.411 90.856 202.582 90.856C202.539 90.856 202.561 90.7707 202.646 90.6C202.646 90.5147 202.667 90.4293 202.71 90.344C202.753 90.216 202.795 90.1307 202.838 90.088C202.881 90.088 202.945 89.9387 203.03 89.64C203.115 89.2987 203.179 89.1067 203.222 89.064C203.819 87.2293 204.63 85.672 205.654 84.392C206.721 83.0693 208.171 82.088 210.006 81.448C210.177 81.4053 210.326 81.384 210.454 81.384C210.625 81.3413 210.795 81.32 210.966 81.32C211.307 81.32 211.755 81.448 212.31 81.704C212.865 81.9173 213.355 82.216 213.782 82.6C214.251 82.9413 214.507 83.304 214.55 83.688C214.55 83.8587 214.55 84.008 214.55 84.136C214.593 84.264 214.614 84.4133 214.614 84.584C214.614 84.84 214.55 85.1387 214.422 85.48L214.038 85.672C213.953 85.8427 213.867 85.9707 213.782 86.056L213.398 86.504C213.057 86.8453 212.929 87.08 213.014 87.208L212.886 87.272C212.886 87.272 212.886 87.2933 212.886 87.336C212.886 87.336 212.865 87.336 212.822 87.336L212.886 87.272L212.822 87.336V87.4L212.502 87.464C212.331 87.592 212.182 87.7413 212.054 87.912C211.926 88.04 211.798 88.1893 211.67 88.36C211.03 89.0427 210.198 89.64 209.174 90.152C208.15 90.6213 207.211 91.048 206.358 91.432C206.23 91.4747 206.038 91.5387 205.782 91.624C205.569 91.6667 205.419 91.752 205.334 91.88C205.163 92.0933 205.057 92.3707 205.014 92.712C204.971 93.0533 204.95 93.3733 204.95 93.672C205.035 94.184 205.163 94.6747 205.334 95.144C205.547 95.6133 205.974 95.848 206.614 95.848H207.19C207.403 95.848 207.617 95.8267 207.83 95.784C208.086 95.7413 208.342 95.6987 208.598 95.656L209.046 95.4L209.11 95.464C209.366 95.3787 209.814 95.1867 210.454 94.888C211.094 94.5893 211.713 94.2907 212.31 93.992C212.907 93.6507 213.27 93.416 213.398 93.288L213.462 93.224L213.526 93.096L213.718 92.904C214.486 92.3493 215.233 91.88 215.958 91.496C216.683 91.0693 217.387 90.5147 218.07 89.832L218.198 89.96H218.39C218.347 90.2587 218.241 90.4933 218.07 90.664C217.899 90.792 217.707 90.9627 217.494 91.176L217.302 91.496C216.79 92.3067 216.001 93.1173 214.934 93.928C213.91 94.7387 212.971 95.4213 212.118 95.976C211.819 96.1467 211.521 96.36 211.222 96.616C210.923 96.8293 210.582 97 210.198 97.128C209.473 97.3413 208.811 97.448 208.214 97.448ZM206.166 89.512C206.422 89.512 206.593 89.512 206.678 89.512C206.806 89.4693 206.977 89.4267 207.19 89.384C208.043 88.9147 208.833 88.36 209.558 87.72C210.326 87.08 211.051 86.44 211.734 85.8C211.819 85.5013 212.033 85.2453 212.374 85.032L212.63 84.84C212.715 84.7547 212.779 84.6693 212.822 84.584C212.907 84.4987 212.95 84.4133 212.95 84.328C212.993 84.2853 212.971 84.136 212.886 83.88L212.822 83.56V83.432C212.694 83.3893 212.523 83.368 212.31 83.368C212.011 83.496 211.713 83.688 211.414 83.944C211.115 84.2 210.795 84.3493 210.454 84.392C210.283 84.648 209.921 84.9893 209.366 85.416C209.067 85.672 208.769 85.928 208.47 86.184C208.214 86.3973 208.043 86.5467 207.958 86.632C207.659 86.9307 207.297 87.4 206.87 88.04C206.443 88.6373 206.209 89.128 206.166 89.512Z" fill="white"/>
</svg>
